<svg xmlns="http://www.w3.org/2000/svg" style="display:none">

  <!-- Social -->
  <symbol id="icon-github" viewBox="0 0 24 24">
    <path d="M12 .297c-6.63 0-12 5.373-12 12 0 5.303 3.438 9.8 8.205 11.385.6.113.82-.258.82-.577 0-.285-.01-1.04-.015-2.04-3.338.724-4.042-1.61-4.042-1.61C4.422 18.07 3.633 17.7 3.633 17.7c-1.087-.744.084-.729.084-.729 1.205.084 1.838 1.236 1.838 1.236 1.07 1.835 2.809 1.305 3.495.998.108-.776.417-1.305.76-1.605-2.665-.3-5.466-1.332-5.466-5.93 0-1.31.465-2.38 1.235-3.22-.135-.303-.54-1.523.105-3.176 0 0 1.005-.322 3.3 1.23.96-.267 1.98-.399 3-.405 1.02.006 2.04.138 3 .405 2.28-1.552 3.285-1.23 3.285-1.23.645 1.653.24 2.873.12 3.176.765.84 1.23 1.91 1.23 3.22 0 4.61-2.805 5.625-5.475 5.92.42.36.81 1.096.81 2.22 0 1.606-.015 2.896-.015 3.286 0 .315.21.69.825.57C20.565 22.092 24 17.592 24 12.297c0-6.627-5.373-12-12-12"/>
  </symbol>

  <symbol id="icon-linkedin" viewBox="0 0 24 24">
    <path fill-rule="evenodd" d="M20.447 20.452h-3.554v-5.569c0-1.328-.027-3.037-1.852-3.037-1.853 0-2.136 1.445-2.136 2.939v5.667H9.351V9h3.414v1.561h.046c.477-.9 1.637-1.85 3.37-1.85 3.601 0 4.267 2.37 4.267 5.455v6.286zM5.337 7.433a2.062 2.062 0 01-2.063-2.065 2.064 2.064 0 112.063 2.065zm1.782 13.019H3.555V9h3.564v11.452zM22.225 0H1.771C.792 0 0 .774 0 1.729v20.542C0 23.227.792 24 1.771 24h20.451C23.2 24 24 23.227 24 22.271V1.729C24 .774 23.2 0 22.222 0h.003z"/>
  </symbol>

  <!-- Backend -->
  <symbol id="icon-nodejs" viewBox="0 0 24 24">
    <path d="M11.998 24c-.321 0-.641-.084-.922-.247l-2.936-1.737c-.438-.245-.224-.332-.08-.383.585-.203.703-.25 1.328-.604.065-.037.151-.023.218.017l2.256 1.339a.29.29 0 00.272 0l8.795-5.076a.277.277 0 00.134-.238V6.921a.28.28 0 00-.137-.242l-8.791-5.072a.278.278 0 00-.271 0L3.075 6.68a.284.284 0 00-.139.241v10.15a.27.27 0 00.138.236l2.409 1.392c1.307.654 2.108-.116 2.108-.89V7.787c0-.142.114-.253.256-.253h1.115c.139 0 .255.112.255.253v10.021c0 1.745-.95 2.745-2.604 2.745-.508 0-.909 0-2.026-.551L2.28 18.675a1.857 1.857 0 01-.922-1.604V6.921c0-.659.353-1.275.922-1.603L11.075.242a1.932 1.932 0 011.848 0l8.794 5.076c.57.329.924.944.924 1.603v10.15a1.86 1.86 0 01-.924 1.604l-8.794 5.078a1.848 1.848 0 01-.925.247z"/>
  </symbol>

  <symbol id="icon-typescript" viewBox="0 0 24 24">
    <path fill-rule="evenodd" d="M1.125 0C.502 0 0 .502 0 1.125v21.75C0 23.498.502 24 1.125 24h21.75c.623 0 1.125-.502 1.125-1.125V1.125C24 .502 23.498 0 22.875 0zm17.363 9.75c.612 0 1.154.037 1.627.111a6.38 6.38 0 011.306.34v2.458a3.95 3.95 0 00-.643-.361 5.093 5.093 0 00-.717-.26 5.453 5.453 0 00-1.426-.2c-.3 0-.573.028-.819.086a2.1 2.1 0 00-.623.242c-.17.104-.3.229-.393.374a.888.888 0 00-.14.49c0 .196.053.373.156.529.104.156.252.304.443.444s.42.276.69.394c.268.118.58.232.936.341.478.144.91.314 1.296.507.387.194.72.42 1.004.678.284.259.5.56.653.903.152.344.228.741.228 1.192 0 .6-.118 1.09-.354 1.47-.236.381-.554.68-.95.896-.396.217-.855.368-1.376.453-.52.085-1.074.128-1.66.128-.412 0-.837-.04-1.274-.117a6.85 6.85 0 01-1.16-.34v-2.57c.192.164.408.313.648.446.24.133.493.248.756.344.264.096.532.17.806.222a4.09 4.09 0 00.786.076c.306 0 .573-.033.803-.099.23-.066.417-.159.558-.28a1.17 1.17 0 00.34-.432.898.898 0 00.011-.69 1.2 1.2 0 00-.372-.497 3.614 3.614 0 00-.656-.437 9.868 9.868 0 00-.957-.405c-.464-.159-.886-.342-1.27-.548a4.163 4.163 0 01-.98-.707 2.912 2.912 0 01-.634-.942c-.152-.36-.228-.775-.228-1.247 0-.567.12-1.05.358-1.442.238-.393.56-.712.966-.958.406-.246.869-.422 1.39-.53a7.04 7.04 0 011.596-.16zM5.064 10.5H14.3v2.062H10.88V21.5H8.498V12.562H5.064z"/>
  </symbol>

  <symbol id="icon-nestjs" viewBox="0 0 24 24">
    <path d="M14.131.047c-.173 0-.334.037-.483.087.316.21.49.49.576.806.007.043.019.074.025.117.007.043.006.117.012.16.012.172-.006.344-.044.51-.037.154-.112.3-.156.45-.05.117-.106.222-.168.334-.068.117-.13.21-.205.31a3.15 3.15 0 01-.266.291c-.043.05-.093.093-.143.137a1.266 1.266 0 01-.093.08c-.012.013-.025.025-.031.031 0 .007.006.007.006.007.007 0 .019-.006.025-.006.056-.019.117-.044.185-.069.068-.018.13-.049.198-.074.037-.012.074-.031.111-.044.038-.012.074-.031.117-.044l.087-.043c.025-.012.049-.025.08-.037.093-.05.186-.106.272-.168.044-.025.08-.056.124-.087.093-.068.18-.137.266-.211a2.18 2.18 0 00.266-.26c.043-.049.093-.098.13-.16.044-.055.093-.117.13-.172a1.89 1.89 0 00.111-.21 1.593 1.593 0 00.13-.322c.018-.055.03-.117.049-.172a1.316 1.316 0 00.03-.234c.007-.037.007-.074.012-.111 0-.031.007-.068.007-.105 0-.179-.037-.358-.087-.53a1.59 1.59 0 00-.26-.49A1.606 1.606 0 0014.13.047zm3.224 1.578c-.012.043-.006.08-.006.124 0 .037 0 .074.006.111 0 .037.006.074.006.117.007.037.013.074.019.111.012.037.018.074.037.111.012.037.018.074.037.111.018.037.025.068.043.105.019.037.037.074.056.105.018.037.037.074.062.111.025.031.043.068.068.099a.916.916 0 00.074.098l.08.093c.025.031.056.062.08.087.031.031.062.056.093.08.031.024.062.056.099.074.031.025.068.049.105.074.037.018.068.037.105.056.037.018.074.037.117.049.037.018.074.025.111.037.037.013.074.019.111.031.037.007.074.019.111.019.037.006.074.006.111.006.044.007.08.007.124.007.031 0 .074-.007.111-.007.025-.006.056-.006.08-.012.013 0 .025-.006.031-.006.007-.007.019-.007.025-.013.013 0 .025-.006.037-.006-.068-.087-.143-.167-.217-.24a3.652 3.652 0 00-.266-.24 3.038 3.038 0 00-.297-.218c-.1-.068-.204-.13-.31-.186a2.632 2.632 0 00-.635-.266 3.043 3.043 0 00-.395-.093c-.068-.012-.143-.019-.21-.025-.025-.006-.05-.006-.074-.006zM.924 3.482c-.019.037-.031.068-.049.111L.849 3.66c-.019.049-.031.098-.049.148-.012.049-.025.098-.031.148-.006.049-.012.098-.019.148 0 .049 0 .098-.006.148 0 .062.006.117.006.179.006.068.019.13.025.198.019.068.037.13.056.198.025.062.049.124.08.186.037.062.068.118.105.179a1.872 1.872 0 00.272.31c.056.05.111.099.172.142.037.025.08.049.124.068.025.012.043.025.068.037h.006a.014.014 0 01.013.006c.086.044.167.08.254.111l.106.037.037.012c.025.007.05.019.08.019h.006c.038.006.075.012.112.019h.025c.037.006.074.012.111.012h.007c.018 0 .037.007.055.007h.032c.018 0 .037 0 .055.006h.092a.36.36 0 00.068-.006c.019 0 .031-.006.05-.006h.018c.019 0 .044-.007.068-.007.019 0 .037-.006.056-.006.018-.006.037-.006.055-.012.019-.007.044-.007.062-.013.019-.006.037-.012.056-.012.018-.007.037-.013.055-.019.019-.006.037-.012.056-.025.018-.006.037-.018.055-.025l.056-.025c.018-.012.037-.018.055-.03.019-.013.037-.025.056-.038.018-.012.037-.025.049-.037l.056-.043c.018-.019.031-.031.049-.05l.049-.049.049-.05c.025-.03.043-.055.062-.086a.882.882 0 00.099-.173c.018-.037.037-.074.049-.117.012-.037.019-.074.031-.111.006-.037.012-.074.012-.111.006-.037.012-.074.006-.111 0-.037 0-.074-.006-.111a.963.963 0 00-.031-.117c-.012-.037-.019-.074-.037-.111-.013-.037-.031-.074-.05-.111-.018-.031-.037-.068-.055-.098-.025-.031-.044-.068-.068-.099a.812.812 0 00-.174-.173c-.031-.024-.068-.049-.099-.074-.037-.024-.074-.049-.111-.067-.037-.025-.074-.043-.111-.062-.037-.018-.074-.037-.117-.055a3.506 3.506 0 00-.241-.098c-.044-.012-.08-.03-.124-.037-.044-.013-.08-.025-.124-.037-.044-.012-.08-.019-.124-.025-.044-.006-.08-.012-.124-.018-.043-.006-.08-.012-.124-.012h-.187c-.043 0-.08.006-.124.012-.043.006-.08.012-.124.019-.044.012-.08.018-.124.03-.044.013-.08.032-.124.044-.044.019-.08.031-.124.05-.037.018-.074.043-.111.062a.979.979 0 00-.111.08c-.037.031-.074.055-.105.087a1.173 1.173 0 00-.198.235c-.025.037-.05.074-.068.117-.019.037-.037.074-.056.117-.018.037-.031.08-.043.124-.013.037-.025.08-.031.124-.012.037-.012.08-.018.124-.007.037-.007.08-.007.124 0 .037 0 .08.007.124.006.037.012.08.018.117.007.043.019.08.031.124.012.037.025.08.044.117.018.044.037.08.055.118.019.037.044.074.068.111.025.037.05.074.08.111l.093.099c.031.037.068.068.105.098a.816.816 0 00.117.087c.037.025.08.049.124.074.044.025.08.043.124.062.043.018.08.037.124.056.043.012.08.03.124.043.037.012.08.019.117.025.044.012.08.019.124.025.044.006.08.012.124.012.043.006.08.006.124.007h.123c.044 0 .08-.007.124-.012.044-.007.08-.013.124-.019.043-.012.08-.019.117-.031l.124-.044c.044-.018.08-.037.124-.062.037-.018.074-.043.111-.062.037-.025.074-.049.111-.08.037-.031.068-.062.105-.099.03-.031.062-.068.093-.099.025-.037.049-.074.074-.117.018-.037.043-.074.062-.111.018-.037.031-.074.043-.117.019-.038.031-.08.044-.124.006-.037.012-.08.018-.117.007-.044.007-.08.007-.124 0-.044 0-.08-.007-.124-.006-.043-.012-.08-.018-.124-.013-.043-.025-.08-.044-.117-.012-.044-.025-.08-.043-.118-.019-.037-.044-.074-.062-.111a1.062 1.062 0 00-.167-.222c-.031-.031-.068-.062-.105-.099-.037-.031-.074-.056-.111-.08-.037-.025-.074-.05-.111-.068-.044-.025-.08-.044-.124-.062-.044-.025-.08-.044-.124-.056-.044-.018-.08-.031-.124-.044-.043-.012-.08-.024-.123-.03-.044-.013-.08-.019-.124-.025-.044-.007-.08-.013-.124-.013h-.248a.36.36 0 00-.068.007c-.044.006-.08.006-.124.012-.043.007-.08.019-.123.025-.044.013-.08.025-.124.037a3.34 3.34 0 00-.372.16c-.037.025-.074.043-.111.068-.037.025-.074.05-.111.08-.031.024-.062.055-.093.08l-.08.086a3.538 3.538 0 01-.105-.055c-.037-.012-.074-.031-.111-.043-.037-.013-.08-.025-.117-.037a1.248 1.248 0 00-.248-.05c-.044-.005-.08-.011-.124-.011-.044-.007-.08-.007-.124-.007-.043 0-.08.007-.124.007-.043.006-.08.006-.123.012-.044.007-.08.019-.124.025-.044.012-.08.025-.124.037-.043.019-.08.037-.117.056-.044.019-.08.037-.124.062-.037.025-.074.043-.111.068-.037.025-.074.056-.111.08-.031.031-.062.062-.093.093-.025.031-.055.062-.08.093-.025.031-.05.068-.074.099-.025.037-.044.074-.068.111-.019.037-.037.08-.056.117-.012.044-.025.08-.037.124-.012.037-.019.08-.025.117-.006.044-.012.08-.019.124-.006.043-.006.08-.006.124 0 .043.006.08.006.124.007.043.013.08.019.117.006.043.013.08.025.123.012.044.025.08.037.118.019.037.037.08.056.117.024.037.043.074.068.111.024.037.05.068.074.099.025.037.05.068.08.093.031.037.062.068.093.093.037.037.074.062.111.093l.117.074.117.062c.044.019.08.037.124.05.043.018.08.03.124.043.044.012.08.019.117.025.044.006.08.012.124.018.044.007.08.007.124.007.043 0 .08-.007.124-.007.043-.006.08-.012.123-.018.044-.006.08-.013.118-.025.043-.013.08-.025.123-.043.044-.013.08-.031.124-.05.037-.018.08-.043.117-.062.037-.025.08-.05.117-.074.037-.031.074-.056.105-.093.031-.025.062-.056.093-.093.031-.031.055-.062.08-.093.025-.031.05-.062.074-.099.019-.037.044-.074.062-.111.019-.037.037-.08.056-.117.012-.038.025-.074.037-.118.012-.043.018-.08.025-.123.006-.037.012-.074.018-.117.007-.044.007-.08.007-.124 0-.044 0-.08-.007-.124-.006-.044-.012-.08-.018-.124-.007-.037-.013-.08-.025-.117-.012-.044-.025-.08-.037-.124-.019-.037-.037-.08-.056-.117-.018-.037-.043-.074-.062-.111-.024-.031-.049-.068-.074-.099-.025-.031-.05-.062-.08-.093-.03-.031-.062-.062-.093-.093-.031-.037-.068-.062-.105-.093a1.272 1.272 0 00-.117-.074 1.93 1.93 0 00-.241-.112c-.044-.018-.08-.03-.124-.043-.037-.012-.074-.019-.117-.025-.044-.006-.08-.012-.124-.012h-.247z"/>
  </symbol>

  <symbol id="icon-python" viewBox="0 0 24 24">
    <path d="M14.25.18l.9.2.73.26.59.3.45.32.34.34.25.34.16.33.1.3.04.26.02.2-.01.13V8.5l-.05.63-.13.55-.21.46-.26.38-.3.31-.33.25-.35.19-.35.14-.33.1-.3.07-.26.04-.21.02H8.77l-.69.05-.59.14-.5.22-.41.27-.33.32-.27.35-.2.36-.15.37-.1.35-.07.32-.04.27-.02.21v3.68H3.23l-.21-.03-.28-.07-.32-.12-.35-.18-.36-.26-.36-.36-.35-.46-.32-.59-.28-.73-.21-.88-.14-1.05-.05-1.23.06-1.22.16-1.04.24-.87.32-.71.36-.57.4-.44.42-.33.42-.24.4-.16.36-.1.32-.05.24-.01h.16l7.06.01v-.68h-3.3V1.19l.06-.42.12-.42.18-.38.25-.35.31-.3.36-.25.42-.2.46-.14.5-.1.54-.05.56-.01zm-2.37 3.07c-.3 0-.57.1-.78.3-.22.2-.34.48-.36.79v.01c0 .31.12.59.34.79.22.21.49.31.8.31.3 0 .57-.1.78-.31.22-.2.34-.48.34-.79 0-.32-.12-.59-.34-.8-.21-.2-.48-.3-.78-.3z"/>
    <path d="M9.75 23.82l-.9-.2-.73-.26-.59-.3-.45-.32-.34-.34-.25-.34-.16-.33-.1-.3-.04-.26-.02-.2V15.5l.05-.63.13-.55.21-.46.26-.38.3-.31.33-.25.35-.19.35-.14.33-.1.3-.07.26-.04.21-.02h5.73l.69-.05.59-.14.5-.22.41-.27.33-.32.27-.35.2-.36.15-.37.1-.35.07-.32.04-.27.02-.21v-3.68h3.23l.21.03.28.07.32.12.35.18.36.26.36.36.35.46.32.59.28.73.21.88.14 1.05.05 1.23-.06 1.22-.16 1.04-.24.87-.32.71-.36.57-.4.44-.42.33-.42.24-.4.16-.36.1-.32.05-.24.01h-.16l-7.06-.01v.68h3.3v2.04l-.06.42-.12.42-.18.38-.25.35-.31.3-.36.25-.42.2-.46.14-.5.1-.54.05-.56.01zm2.37-3.07c.3 0 .57-.1.78-.3.22-.2.34-.48.36-.79v-.01c0-.31-.12-.59-.34-.79-.22-.21-.49-.31-.8-.31-.3 0-.57.1-.78.31-.22.2-.34.48-.34.79 0 .32.12.59.34.8.21.2.48.3.78.3z"/>
  </symbol>

  <symbol id="icon-django" viewBox="0 0 24 24">
    <path d="M11.146 0h3.924v18.166c-2.013.382-3.491.535-5.096.535-4.791 0-7.288-2.166-7.288-6.32 0-3.872 2.65-6.373 6.755-6.373.535 0 .924.051 1.705.204V0zM9.832 9.14c-.535-.172-1.004-.236-1.517-.236-2.296 0-3.614 1.4-3.614 3.872 0 2.394 1.266 3.716 3.572 3.716.535 0 .97-.053 1.559-.172V9.14zM21.314 6.06v9.098c0 3.134-.236 4.638-.94 5.937-.66 1.249-1.538 2.037-3.342 2.905l-3.646-1.733c1.806-.83 2.677-1.566 3.29-2.726.636-1.2.86-2.587.86-5.908V6.06h3.778zm-3.778-5.625h3.778V4.06h-3.778V.435z"/>
  </symbol>

  <symbol id="icon-java" viewBox="0 0 24 24">
    <path d="M8.851 18.56s-.917.534.653.714c1.902.218 2.874.187 4.969-.211 0 0 .552.346 1.321.646-4.699 2.013-10.633-.118-6.943-1.149M8.276 15.933s-1.028.761.542.924c2.032.209 3.636.227 6.413-.308 0 0 .384.389.987.602-5.679 1.661-12.007.13-7.942-1.218M13.116 11.475c1.158 1.333-.304 2.533-.304 2.533s2.939-1.518 1.589-3.418c-1.261-1.772-2.228-2.652 3.007-5.688 0-.001-8.216 2.051-4.292 6.573M19.33 20.504s.679.559-.747.991c-2.712.822-11.288 1.069-13.669.033-.856-.373.75-.89 1.254-.998.527-.114.828-.093.828-.093-.953-.671-6.156 1.317-2.643 1.887 9.58 1.553 17.462-.7 14.977-1.82M9.292 13.21s-4.362 1.036-1.544 1.412c1.189.159 3.561.123 5.77-.062 1.806-.152 3.618-.477 3.618-.477s-.637.272-1.098.587c-4.429 1.165-12.986.623-10.522-.568 2.082-1.006 3.776-.892 3.776-.892M17.116 17.584c4.503-2.34 2.421-4.589.968-4.285-.355.074-.515.138-.515.138s.132-.207.385-.297c2.875-1.011 5.086 2.981-.928 4.562 0-.001.07-.062.09-.118M14.401 0s2.494 2.494-2.365 6.33c-3.896 3.077-.889 4.832 0 6.836-2.274-2.053-3.943-3.858-2.824-5.539 1.644-2.469 6.197-3.665 5.189-7.627M9.734 23.924c4.322.277 10.959-.154 11.116-2.198 0 0-.302.775-3.572 1.391-3.688.694-8.239.613-10.937.168 0-.001.553.457 3.393.639"/>
  </symbol>

  <!-- Frontend -->
  <symbol id="icon-vuejs" viewBox="0 0 24 24">
    <path fill-rule="evenodd" d="M24 1.61h-9.94L12 5.16 9.94 1.61H0l12 20.78ZM12 14.08 5.16 2.23h4.43L12 6.41l2.41-4.18h4.43Z"/>
  </symbol>

  <symbol id="icon-angular" viewBox="0 0 24 24">
    <path d="M16.712 17.711H7.288l-1.204 2.916L12 24l5.916-3.373-1.204-2.916ZM14.692 0l7.832 16.855.814-12.856L14.692 0ZM9.308 0 .662 3.999l.814 12.856L9.308 0Zm-.405 13.93h6.198L12 6.396 8.903 13.93Z"/>
  </symbol>

  <symbol id="icon-react" viewBox="0 0 24 24">
    <path d="M14.23 12.004a2.236 2.236 0 0 1-2.235 2.236 2.236 2.236 0 0 1-2.236-2.236 2.236 2.236 0 0 1 2.235-2.236 2.236 2.236 0 0 1 2.236 2.236zm2.648-10.69c-1.346 0-3.107.96-4.888 2.622-1.78-1.653-3.542-2.602-4.887-2.602-.31 0-.592.068-.837.182-.726.35-1.175 1.22-1.3 2.487-.132 1.34.2 3.024.848 4.876-1.83.587-3.26 1.358-4.07 2.335-.256.308-.433.664-.433 1.078 0 .732.489 1.404 1.226 1.948.695.514 1.652.917 2.736 1.198-.396 1.486-.546 2.867-.4 3.98.136.975.488 1.734 1.08 2.078.244.142.525.216.84.216 1.347 0 3.108-.96 4.888-2.624 1.78 1.654 3.542 2.603 4.887 2.603.31 0 .592-.068.838-.182.725-.348 1.175-1.22 1.3-2.486.132-1.34-.2-3.024-.85-4.876 1.832-.586 3.262-1.357 4.072-2.334.255-.308.432-.664.432-1.078 0-.732-.489-1.404-1.225-1.948-.696-.514-1.653-.917-2.737-1.2.396-1.485.546-2.865.4-3.978-.136-.975-.487-1.734-1.08-2.078a1.62 1.62 0 0 0-.84-.214zm-.01 1.09c.129 0 .233.028.3.07.27.162.541.644.637 1.33.107 1.025-.163 2.386-.548 3.797-.8-.207-1.686-.355-2.618-.44a16.32 16.32 0 0 0-1.648-1.974c1.574-1.494 3.014-2.357 3.877-2.357zM12 5.55c.418.4.84.848 1.25 1.337-.416-.025-.835-.038-1.25-.038-.416 0-.834.012-1.248.036.41-.487.832-.935 1.248-1.335zm-4.852-.405c.095-.648.352-1.133.623-1.296a.534.534 0 0 1 .302-.07c.863 0 2.302.862 3.877 2.356a16.32 16.32 0 0 0-1.648 1.974c-.933.085-1.82.232-2.618.44-.386-1.41-.656-2.771-.548-3.797zM4.36 12.004c0-.14.064-.318.206-.498.587-.744 1.794-1.418 3.37-1.912a20.7 20.7 0 0 0 .93 2.402 20.7 20.7 0 0 0-.93 2.402c-1.575-.494-2.782-1.168-3.37-1.912a.9.9 0 0 1-.206-.498zm3.486 6.202c-.386-1.41-.656-2.772-.548-3.798.096-.648.352-1.133.623-1.297a.535.535 0 0 1 .302-.07c.002 0 .004 0 .006.002.863 0 2.3.862 3.872 2.35a16.573 16.573 0 0 0-1.643 1.97c-.935.084-1.823.232-2.612.44zm4.166 4.486c-.42-.402-.84-.85-1.25-1.34.416.025.835.04 1.252.04.416 0 .834-.014 1.248-.038-.41.487-.832.935-1.25 1.338zm4.846-.4c-.094.65-.35 1.136-.622 1.298-.068.044-.172.07-.302.07-.863 0-2.3-.862-3.872-2.35a16.41 16.41 0 0 0 1.643-1.97c.935-.084 1.823-.232 2.613-.44.385 1.41.654 2.77.547 3.797zM19.64 12c0 .14-.064.318-.206.498-.587.744-1.794 1.418-3.37 1.912a20.7 20.7 0 0 0-.93-2.402 20.7 20.7 0 0 0 .93-2.402c1.575.494 2.782 1.168 3.37 1.912.14.18.206.358.206.498zm-7.632-3.74a14.99 14.99 0 0 1 1.254 1.742H10.74c.426-.62.874-1.2 1.336-1.742zm1.254 5.486a14.99 14.99 0 0 1-1.254 1.742c-.462-.543-.91-1.122-1.336-1.742zM12 8.674c.555 0 1.102.024 1.635.07a19.36 19.36 0 0 1 1.36 1.88c.473.735.897 1.492 1.27 2.256a19.36 19.36 0 0 1-1.27 2.256c-.437.687-.897 1.316-1.36 1.88a19.71 19.71 0 0 1-3.27 0 19.361 19.361 0 0 1-1.36-1.88A19.36 19.36 0 0 1 8.735 12.88c.373-.764.797-1.52 1.27-2.256.437-.687.898-1.316 1.36-1.88A19.71 19.71 0 0 1 12 8.674z"/>
  </symbol>

  <symbol id="icon-javascript" viewBox="0 0 24 24">
    <path fill-rule="evenodd" d="M0 0h24v24H0V0zm22.034 18.276c-.175-1.095-.888-2.015-3.003-2.873-.736-.345-1.554-.585-1.797-1.14-.091-.33-.105-.51-.046-.705.15-.646.915-.84 1.515-.66.39.12.75.42.976.9 1.034-.676 1.034-.676 1.755-1.125-.27-.42-.405-.6-.586-.78-.63-.705-1.469-1.065-2.834-1.034l-.705.089c-.676.165-1.32.525-1.71 1.005-1.14 1.291-.811 3.541.569 4.471 1.365 1.02 3.361 1.244 3.616 2.205.24 1.17-.87 1.545-1.966 1.41-.811-.18-1.26-.586-1.755-1.336l-1.83 1.051c.21.48.45.689.81 1.109 1.74 1.756 6.09 1.666 6.871-1.004.029-.09.24-.705.074-1.65l.046.067zm-8.983-7.245h-2.248c0 1.938-.009 3.864-.009 5.805 0 1.232.063 2.363-.138 2.711-.33.689-1.18.601-1.566.48-.396-.196-.597-.466-.83-.855-.063-.105-.11-.196-.127-.196l-1.825 1.125c.305.63.75 1.172 1.324 1.517.855.51 2.004.675 3.207.405.783-.226 1.458-.691 1.811-1.411.51-.93.402-2.07.397-3.346.012-2.054 0-4.109 0-6.179l.004-.056z"/>
  </symbol>

  <symbol id="icon-html5" viewBox="0 0 24 24">
    <path fill-rule="evenodd" d="M1.5 0h21l-1.91 21.563L11.977 24l-8.564-2.438L1.5 0zm7.031 9.75l-.232-2.718 10.059.003.071-.747.49-5.538H5.879l1.306 14.53 4.822 1.356 4.854-1.358 1.16-7.032H11.51l-.29 3.286 1.07.355 1.772-.372.178-2.81-5.673-.002z"/>
  </symbol>

  <symbol id="icon-css3" viewBox="0 0 24 24">
    <path fill-rule="evenodd" d="M1.5 0h21l-1.91 21.563L11.977 24l-8.565-2.438L1.5 0zm17.09 4.413L5.41 4.41l.213 2.622 10.125.002-.255 2.716h-6.64l.24 2.573h6.182l-.366 3.523-2.91.804-2.956-.81-.188-2.11h-2.61l.29 3.855L12 19.002l5.355-1.12.842-9.13.026-.292-.012.014z"/>
  </symbol>

  <!-- Cloud & DevOps -->
  <symbol id="icon-aws" viewBox="0 0 24 24">
    <path d="M6.763 10.036c0 .296.032.535.088.71.064.176.144.368.256.576.04.063.056.127.056.183 0 .08-.048.16-.152.24l-.503.335a.383.383 0 01-.208.072c-.08 0-.16-.04-.239-.112a2.47 2.47 0 01-.287-.374 6.18 6.18 0 01-.248-.467c-.622.734-1.405 1.101-2.347 1.101-.67 0-1.205-.191-1.596-.574-.391-.384-.59-.894-.59-1.533 0-.678.239-1.23.726-1.644.487-.415 1.133-.623 1.955-.623.272 0 .551.024.846.064.296.04.6.104.918.176v-.583c0-.607-.127-1.03-.375-1.277-.255-.248-.686-.367-1.3-.367-.28 0-.568.031-.863.103a6.395 6.395 0 00-.862.279 2.296 2.296 0 01-.28.104.488.488 0 01-.127.023c-.112 0-.168-.08-.168-.247v-.391c0-.128.016-.224.056-.28a.597.597 0 01.224-.167 4.59 4.59 0 01.958-.343A4.693 4.693 0 014.57 5.07c.862 0 1.493.196 1.9.586.4.391.607.982.607 1.773v2.335l-.008.001-.306.271zm-3.24 1.213c.263 0 .534-.048.822-.144.287-.096.543-.271.758-.51a1.2 1.2 0 00.32-.568c.04-.176.063-.384.063-.624v-.303a6.64 6.64 0 00-.735-.136 6.01 6.01 0 00-.75-.048c-.535 0-.926.104-1.18.32-.256.215-.38.52-.38.918 0 .375.096.655.295.846.192.2.478.296.862.296l-.075-.047zm6.41 1.084c-.144 0-.24-.024-.304-.08-.064-.048-.12-.16-.168-.311L7.586 5.55a1.398 1.398 0 01-.072-.335c0-.128.064-.2.191-.2h.783c.151 0 .255.025.31.08.065.048.113.16.16.311l1.342 5.284 1.245-5.284c.04-.16.088-.263.152-.311a.549.549 0 01.32-.08h.638c.152 0 .256.025.32.08.063.048.12.16.151.311l1.261 5.348 1.381-5.348c.048-.16.104-.263.16-.311a.52.52 0 01.311-.08h.743c.128 0 .2.064.2.2 0 .04-.008.08-.016.128a1.137 1.137 0 01-.056.215l-1.918 6.17c-.048.16-.104.263-.168.312-.064.048-.176.08-.303.08h-.687c-.151 0-.255-.024-.32-.08-.063-.056-.119-.16-.15-.32l-1.238-5.148-1.23 5.14c-.04.16-.087.272-.15.32-.065.056-.177.08-.32.08h-.687zm10.256.215c-.415 0-.83-.048-1.229-.143-.399-.096-.71-.2-.918-.32-.128-.071-.215-.151-.247-.223a.563.563 0 01-.048-.224v-.407c0-.167.064-.247.183-.247a.46.46 0 01.144.024c.048.016.12.048.2.08.271.12.566.215.878.279.319.064.63.096.95.096.502 0 .894-.088 1.165-.264a.86.86 0 00.415-.758.777.777 0 00-.215-.559c-.144-.151-.415-.287-.806-.415l-1.157-.36c-.583-.183-1.014-.454-1.277-.806a1.903 1.903 0 01-.391-1.14c0-.327.071-.615.215-.862.144-.248.336-.463.575-.631.24-.176.51-.304.83-.391.319-.088.655-.128 1.006-.128.176 0 .36.008.535.032.183.024.35.056.518.088.16.04.312.08.455.127.144.048.256.096.336.144a.69.69 0 01.24.2.43.43 0 01.071.263v.375c0 .168-.064.256-.184.256a.83.83 0 01-.303-.096 3.652 3.652 0 00-1.532-.311c-.455 0-.815.071-1.062.223-.248.152-.375.383-.375.71 0 .224.08.416.24.567.16.152.454.304.87.44l1.133.358c.574.183.99.44 1.237.766.248.327.375.702.375 1.117 0 .335-.072.64-.207.902-.144.263-.335.495-.583.687-.248.2-.543.343-.886.447-.36.111-.734.167-1.142.167zM21.698 16.207c-2.626 1.94-6.442 2.97-9.722 2.97-4.598 0-8.74-1.7-11.87-4.526-.247-.223-.024-.527.272-.351 3.384 1.963 7.559 3.153 11.877 3.153 2.914 0 6.114-.607 9.06-1.852.439-.2.814.287.383.606zM22.792 14.961c-.336-.43-2.22-.207-3.074-.103-.255.032-.295-.192-.063-.36 1.5-1.053 3.967-.75 4.254-.399.287.36-.08 2.826-1.485 4.007-.215.183-.423.088-.327-.151.32-.79 1.03-2.57.695-2.994z"/>
  </symbol>

  <symbol id="icon-serverless" viewBox="0 0 24 24">
    <path d="M0 17.57h4.248l-1.316 3.974H0zm0-7.557h6.75l-1.316 3.974H0zm0-7.557h9.252L7.936 6.431H0zm13.44 0H24v3.975H12.123zM9.62 13.987l1.317-3.974H24v3.974zM8.436 17.57H24v3.975H7.119Z"/>
  </symbol>

  <symbol id="icon-docker" viewBox="0 0 24 24">
    <path d="M13.983 11.078h2.119a.186.186 0 00.186-.185V9.006a.186.186 0 00-.186-.186h-2.119a.185.185 0 00-.185.185v1.888c0 .102.083.185.185.185m-2.954-5.43h2.118a.186.186 0 00.186-.186V3.574a.186.186 0 00-.186-.185h-2.118a.185.185 0 00-.185.185v1.888c0 .102.082.185.185.186m0 2.716h2.118a.187.187 0 00.186-.186V6.29a.186.186 0 00-.186-.185h-2.118a.185.185 0 00-.185.185v1.887c0 .102.082.185.185.186m-2.93 0h2.12a.186.186 0 00.184-.186V6.29a.185.185 0 00-.185-.185H8.1a.185.185 0 00-.185.185v1.887c0 .102.083.185.185.186m-2.964 0h2.119a.186.186 0 00.185-.186V6.29a.185.185 0 00-.185-.185H5.136a.186.186 0 00-.186.185v1.887c0 .102.084.185.186.186m5.893 2.715h2.118a.186.186 0 00.186-.185V9.006a.186.186 0 00-.186-.186h-2.118a.185.185 0 00-.185.185v1.888c0 .102.082.185.185.185m-2.93 0h2.12a.185.185 0 00.184-.185V9.006a.185.185 0 00-.184-.186h-2.12a.185.185 0 00-.184.185v1.888c0 .102.083.185.185.185m-2.964 0h2.119a.185.185 0 00.185-.185V9.006a.185.185 0 00-.184-.186h-2.12a.186.186 0 00-.186.186v1.887c0 .102.084.185.186.185m-2.92 0h2.12a.185.185 0 00.184-.185V9.006a.185.185 0 00-.184-.186H2.172a.186.186 0 00-.186.186v1.887c0 .102.084.185.186.185m21.784 1.72c-.532-.526-1.36-.672-2.143-.513a3.158 3.158 0 00-1.074-1.919l-.37-.281-.295.385a3.3 3.3 0 00-.469 1.159c-.175.755-.075 1.465.28 2.076-.43.254-.88.42-1.286.504a8.48 8.48 0 01-1.37.107H.303l-.04.425a6.123 6.123 0 001.092 3.777 5.7 5.7 0 001.47 1.539c1.29.9 2.768 1.289 4.457 1.289.836 0 1.672-.084 2.478-.252a10.7 10.7 0 002.862-1.08 8.49 8.49 0 002.13-1.79c1.05-1.27 1.68-2.69 2.14-3.97h.18c1.133 0 1.83-.453 2.216-.883.267-.26.47-.568.614-.907l.082-.27-.277-.14z"/>
  </symbol>

  <symbol id="icon-githubactions" viewBox="0 0 24 24">
    <path d="M10.984 13.836a.5.5 0 0 1-.353-.146l-.745-.743a.5.5 0 1 1 .706-.708l.392.391 1.181-1.18a.5.5 0 0 1 .708.707l-1.535 1.533a.504.504 0 0 1-.354.146zm9.353-.147l1.534-1.532a.5.5 0 0 0-.707-.707l-1.181 1.18-.392-.391a.5.5 0 1 0-.706.708l.746.743a.497.497 0 0 0 .706-.001zM4.527 7.452l2.557-1.585A1 1 0 0 0 7.09 4.17L4.533 2.56A1 1 0 0 0 3 3.406v3.196a1.001 1.001 0 0 0 1.527.85zm2.03-2.436L4 6.602V3.406l2.557 1.61zM24 12.5c0 1.93-1.57 3.5-3.5 3.5a3.503 3.503 0 0 1-3.46-3h-2.08a3.503 3.503 0 0 1-3.46 3 3.502 3.502 0 0 1-3.46-3h-.558c-.972 0-1.85-.399-2.482-1.042V17c0 1.654 1.346 3 3 3h.04c.244-1.693 1.7-3 3.46-3 1.93 0 3.5 1.57 3.5 3.5S13.43 24 11.5 24a3.502 3.502 0 0 1-3.46-3H8c-2.206 0-4-1.794-4-4V9.899A5.008 5.008 0 0 1 0 5c0-2.757 2.243-5 5-5s5 2.243 5 5a5.005 5.005 0 0 1-4.952 4.998A2.482 2.482 0 0 0 7.482 12h.558c.244-1.693 1.7-3 3.46-3a3.502 3.502 0 0 1 3.46 3h2.08a3.503 3.503 0 0 1 3.46-3c1.93 0 3.5 1.57 3.5 3.5zm-15 8c0 1.378 1.122 2.5 2.5 2.5s2.5-1.122 2.5-2.5-1.122-2.5-2.5-2.5S9 19.122 9 20.5zM5 9c2.206 0 4-1.794 4-4S7.206 1 5 1 1 2.794 1 5s1.794 4 4 4zm9 3.5c0-1.378-1.122-2.5-2.5-2.5S9 11.122 9 12.5s1.122 2.5 2.5 2.5 2.5-1.122 2.5-2.5zm9 0c0-1.378-1.122-2.5-2.5-2.5S18 11.122 18 12.5s1.122 2.5 2.5 2.5 2.5-1.122 2.5-2.5zm-13 8a.5.5 0 1 0 1 0 .5.5 0 0 0-1 0zm2 0a.5.5 0 1 0 1 0 .5.5 0 0 0-1 0zm12 0c0 1.93-1.57 3.5-3.5 3.5a3.503 3.503 0 0 1-3.46-3.002c-.007.001-.013.005-.021.005l-.506.017h-.017a.5.5 0 0 1-.016-.999l.506-.017c.018-.002.035.006.052.007A3.503 3.503 0 0 1 20.5 17c1.93 0 3.5 1.57 3.5 3.5zm-1 0c0-1.378-1.122-2.5-2.5-2.5S18 19.122 18 20.5s1.122 2.5 2.5 2.5 2.5-1.122 2.5-2.5z"/>
  </symbol>

  <symbol id="icon-git" viewBox="0 0 24 24">
    <path d="M23.546 10.93L13.067.452a1.55 1.55 0 00-2.188 0L8.708 2.627l2.76 2.76a1.838 1.838 0 012.327 2.341l2.66 2.66a1.838 1.838 0 011.9 3.039 1.837 1.837 0 01-2.6 0 1.846 1.846 0 01-.404-2.019l-2.48-2.48v6.53a1.834 1.834 0 01.496 3.13 1.838 1.838 0 01-2.598 0 1.838 1.838 0 01.5-2.992V9.168a1.838 1.838 0 01-1-1.615 1.84 1.84 0 01.535-1.3L8.053 3.497.452 11.098a1.55 1.55 0 000 2.19l10.48 10.477a1.55 1.55 0 002.186 0l10.428-10.428a1.55 1.55 0 000-2.188z"/>
  </symbol>

  <!-- Databases & Testing -->
  <symbol id="icon-postgresql" viewBox="0 0 24 24">
    <path d="M23.5594 14.7228a.5269.5269 0 0 0-.0563-.1191c-.139-.2632-.4768-.3418-1.0074-.2321-1.6533.3411-2.2935.1312-2.5256-.0191 1.342-2.0482 2.445-4.522 3.0411-6.8297.2714-1.0507.7982-3.5237.1222-4.7316a1.5641 1.5641 0 0 0-.1509-.235C21.6931.9086 19.8007.0248 17.5099.0005c-1.4947-.0158-2.7705.3461-3.1161.4794a9.449 9.449 0 0 0-.5159-.0816 8.044 8.044 0 0 0-1.3114-.1278c-1.1822-.0184-2.2038.2642-3.0498.8406-.8573-.3211-4.7888-1.645-7.2219.0788C.9359 2.1526.3086 3.8733.4302 6.3043c.0409.818.5069 3.334 1.2423 5.7436.4598 1.5065.9387 2.7019 1.4334 3.582.553.9942 1.1259 1.5933 1.7143 1.7895.4474.1491 1.1327.1441 1.8581-.7279.8012-.9635 1.5903-1.8258 1.9446-2.2069.4351.2355.9064.3625 1.39.3772a.0569.0569 0 0 0 .0004.0041 11.0312 11.0312 0 0 0-.2472.3054c-.3389.4302-.4094.5197-1.5002.7443-.3102.064-1.1344.2339-1.1464.8115-.0025.1224.0329.2309.0919.3268.2269.4231.9216.6097 1.015.6331 1.3345.3335 2.5044.092 3.3714-.6787-.017 2.231.0775 4.4174.3454 5.0874.2212.5529.7618 1.9045 2.4692 1.9043.2505 0 .5263-.0291.8296-.0941 1.7819-.3821 2.5557-1.1696 2.855-2.9059.1503-.8707.4016-2.8753.5388-4.1012.0169-.0703.0357-.1207.057-.1362.0007-.0005.0697-.0471.4272.0307a.3673.3673 0 0 0 .0443.0068l.2539.0223.0149.001c.8468.0384 1.9114-.1426 2.5312-.4308.6438-.2988 1.8057-1.0323 1.5951-1.6698zM2.371 11.8765c-.7435-2.4358-1.1779-4.8851-1.2123-5.5719-.1086-2.1714.4171-3.6829 1.5623-4.4927 1.8367-1.2986 4.8398-.5408 6.108-.13-.0032.0032-.0066.0061-.0098.0094-2.0238 2.044-1.9758 5.536-1.9708 5.7495-.0002.0823.0066.1989.0162.3593.0348.5873.0996 1.6804-.0735 2.9184-.1609 1.1504.1937 2.2764.9728 3.0892.0806.0841.1648.1631.2518.2374-.3468.3714-1.1004 1.1926-1.9025 2.1576-.5677.6825-.9597.5517-1.0886.5087-.3919-.1307-.813-.5871-1.2381-1.3223-.4796-.839-.9635-2.0317-1.4155-3.5126zm6.0072 5.0871c-.1711-.0428-.3271-.1132-.4322-.1772.0889-.0394.2374-.0902.4833-.1409 1.2833-.2641 1.4815-.4506 1.9143-1.0002.0992-.126.2116-.2687.3673-.4426a.3549.3549 0 0 0 .0737-.1298c.1708-.1513.2724-.1099.4369-.0417.156.0646.3078.26.3695.4752.0291.1016.0619.2945-.0452.4444-.9043 1.2658-2.2216 1.2494-3.1676 1.0128zm2.094-3.988-.0525.141c-.133.3566-.2567.6881-.3334 1.003-.6674-.0021-1.3168-.2872-1.8105-.8024-.6279-.6551-.9131-1.5664-.7825-2.5004.1828-1.3079.1153-2.4468.079-3.0586-.005-.0857-.0095-.1607-.0122-.2199.2957-.2621 1.6659-.9962 2.6429-.7724.4459.1022.7176.4057.8305.928.5846 2.7038.0774 3.8307-.3302 4.7363-.084.1866-.1633.3629-.2311.5454zm7.3637 4.5725c-.0169.1768-.0358.376-.0618.5959l-.146.4383a.3547.3547 0 0 0-.0182.1077c-.0059.4747-.054.6489-.115.8693-.0634.2292-.1353.4891-.1794 1.0575-.11 1.4143-.8782 2.2267-2.4172 2.5565-1.5155.3251-1.7843-.4968-2.0212-1.2217a6.5824 6.5824 0 0 0-.0769-.2266c-.2154-.5858-.1911-1.4119-.1574-2.5551.0165-.5612-.0249-1.9013-.3302-2.6462.0044-.2932.0106-.5909.019-.8918a.3529.3529 0 0 0-.0153-.1126 1.4927 1.4927 0 0 0-.0439-.208c-.1226-.4283-.4213-.7866-.7797-.9351-.1424-.059-.4038-.1672-.7178-.0869.067-.276.1831-.5875.309-.9249l.0529-.142c.0595-.16.134-.3257.213-.5012.4265-.9476 1.0106-2.2453.3766-5.1772-.2374-1.0981-1.0304-1.6343-2.2324-1.5098-.7207.0746-1.3799.3654-1.7088.5321a5.6716 5.6716 0 0 0-.1958.1041c.0918-1.1064.4386-3.1741 1.7357-4.4823a4.0306 4.0306 0 0 1 .3033-.276.3532.3532 0 0 0 .1447-.0644c.7524-.5706 1.6945-.8506 2.802-.8325.4091.0067.8017.0339 1.1742.081 1.939.3544 3.2439 1.4468 4.0359 2.3827.8143.9623 1.2552 1.9315 1.4312 2.4543-1.3232-.1346-2.2234.1268-2.6797.779-.9926 1.4189.543 4.1729 1.2811 5.4964.1353.2426.2522.4522.2889.5413.2403.5825.5515.9713.7787 1.2552.0696.087.1372.1714.1885.245-.4008.1155-1.1208.3825-1.0552 1.717-.0123.1563-.0423.4469-.0834.8148-.0461.2077-.0702.4603-.0994.7662zm.8905-1.6211c-.0405-.8316.2691-.9185.5967-1.0105a2.8566 2.8566 0 0 0 .135-.0406 1.202 1.202 0 0 0 .1342.103c.5703.3765 1.5823.4213 3.0068.1344-.2016.1769-.5189.3994-.9533.6011-.4098.1903-1.0957.333-1.7473.3636-.7197.0336-1.0859-.0807-1.1721-.151zm.5695-9.2712c-.0059.3508-.0542.6692-.1054 1.0017-.055.3576-.112.7274-.1264 1.1762-.0142.4368.0404.8909.0932 1.3301.1066.887.216 1.8003-.2075 2.7014a3.5272 3.5272 0 0 1-.1876-.3856c-.0527-.1276-.1669-.3326-.3251-.6162-.6156-1.1041-2.0574-3.6896-1.3193-4.7446.3795-.5427 1.3408-.5661 2.1781-.463zm.2284 7.0137a12.3762 12.3762 0 0 0-.0853-.1074l-.0355-.0444c.7262-1.1995.5842-2.3862.4578-3.4385-.0519-.4318-.1009-.8396-.0885-1.2226.0129-.4061.0666-.7543.1185-1.0911.0639-.415.1288-.8443.1109-1.3505.0134-.0531.0188-.1158.0118-.1902-.0457-.4855-.5999-1.938-1.7294-3.253-.6076-.7073-1.4896-1.4972-2.6889-2.0395.5251-.1066 1.2328-.2035 2.0244-.1859 2.0515.0456 3.6746.8135 4.8242 2.2824a.908.908 0 0 1 .0667.1002c.7231 1.3556-.2762 6.2751-2.9867 10.5405zm-8.8166-6.1162c-.025.1794-.3089.4225-.6211.4225a.5821.5821 0 0 1-.0809-.0056c-.1873-.026-.3765-.144-.5059-.3156-.0458-.0605-.1203-.178-.1055-.2844.0055-.0401.0261-.0985.0925-.1488.1182-.0894.3518-.1226.6096-.0867.3163.0441.6426.1938.6113.4186zm7.9305-.4114c.0111.0792-.049.201-.1531.3102-.0683.0717-.212.1961-.4079.2232a.5456.5456 0 0 1-.075.0052c-.2935 0-.5414-.2344-.5607-.3717-.024-.1765.2641-.3106.5611-.352.297-.0414.6111.0088.6356.1851z"/>
  </symbol>-.2718-.2695-.4593-.5712-.4593-.084 0-.1747.0147-.2726.0446-1.2543.3812-2.1578.5765-2.7606.5765-.1248 0-.2374-.0122-.3401-.0371.4905-.9746.8829-2.0778 1.1618-3.2765.4375-1.8793.4745-3.4733.112-4.8684-.5339-2.0548-1.8894-3.2121-3.822-3.2621-.7102-.0188-1.3846.1696-2.0145.5598-.0706-.0538-.1456-.1048-.2249-.1519-.3894-.232-.8395-.4015-1.3198-.4841-.0594-.008-.1189-.0165-.1788-.0247-.0598-.0083-.1193-.0165-.1793-.0247-.4775-.0488-.9674-.0473-1.4558.0037-.0574.0058-.1155.015-.1737.024-.0383.006-.0765.0113-.1148.0165a8.7717 8.7717 0 00-.4693.091c-.0454.0098-.0907.0196-.1355.0293-.1054.0233-.2069.049-.3049.077-.0373.0108-.075.0216-.1118.0327-.0366.0111-.0727.023-.1083.0352a5.98 5.98 0 00-.4013.159c-.0269.0116-.054.0234-.0808.0352-.024.0107-.0476.022-.0709.0337-.107.053-.2096.1098-.3073.1701-.033.0204-.0653.0415-.0973.063-.5498-.2888-1.1494-.4379-1.7937-.4456-.0127-.0001-.0252-.0004-.0378-.0004-1.7038 0-3.1497 1.0675-3.8613 2.9443-.5507 1.4536-.5961 3.0879-.1364 4.8685.1858.7195.4485 1.4237.7692 2.0912-.0088.065-.015.1332-.015.2108 0 .6766.2505 1.3155.7052 1.7993.4207.4478.9745.6887 1.5597.6887h.0023c.5401-.0003 1.0593-.2184 1.4671-.6148.3706.149.7785.2307 1.207.2415.0233.0008.0469.001.0705.001.7685 0 1.3934-.2906 1.8517-.8617.1698.0396.3439.0608.5206.0608.4167 0 .8083-.1145 1.134-.3312.3192-.2127.5504-.5153.6686-.8764.0271-.005.0544-.0093.0817-.0143.6045-.1117 1.0683-.406 1.3998-.8662.4108.5023.9468.7888 1.5699.8374l.003.0003c.0412.0032.0826.0049.1242.0049.2674 0 .5317-.054.7885-.161.5039-.2096.9126-.5913 1.1814-1.1042.3414-.651.4432-1.4586.3122-2.4711l-.0006-.0049c.0694-.1592.1258-.3225.1726-.4895.4133.0846.892.128 1.4242.128l.0305-.0001c.9126-.0096 1.9629-.1909 3.1199-.5384.0985-.0296.1614-.0869.1964-.1446.0351-.0577.0502-.1279.0376-.2138zm-6.2067-4.3456c-.0367.0397-.088.0624-.1424.063-.0543.0006-.1063-.0205-.1443-.0587a.2032.2032 0 01-.0587-.1428c.0005-.0543.0222-.1058.0604-.1438.0736-.073.1944-.0824.2781-.0128l.0159.0141c.0385.0377.0607.0894.0614.1438.0004.054-.0219.106-.0601.1442l-.0103.0103zm-1.3042-.6216s.2652.217.3435.2924c.032.0303.0557.0689.0688.111.0143.0448.0175.0927.0076.1389-.0213.0988-.0983.179-.197.2032l-.0149.003c-.023.0044-.0465.0064-.0697.0047a.3007.3007 0 01-.1359-.0459.7126.7126 0 01-.0937-.0703.2993.2993 0 01-.098-.18.2966.2966 0 01.0407-.1867l.0046-.0076c.0247-.0372.0577-.068.0975-.0883.0159-.008.0327-.014.05-.018zm-4.6395-2.87c.0575-.0067.1145-.0103.1712-.0103.37 0 .7185.1269.9907.3467-.2267.1464-.443.3221-.6475.5258-.2036.2027-.3766.4175-.5225.6392-.0266-.0158-.0531-.0334-.0794-.0513-.213-.1446-.3762-.2553-.3884-.3778l-.0021-.0256c-.0073-.1223.0326-.3662.0842-.5605.0534-.201.1393-.441.3938-.4862zm-.9326 6.0928c-.0023-.0736.0053-.1545.0162-.2371l.0012-.0095c.0159-.1179.0449-.239.0812-.36.0374-.1244.075-.2161.1218-.3233.1142-.2617.2588-.4995.4293-.7064.0438-.0532.0932-.1103.1474-.1718.0532-.0602.1117-.1246.1752-.1923.1-.1067.2041-.2048.3078-.2903.1087-.0895.2193-.1668.3273-.2291.14-.0807.2796-.1396.4144-.1746.1298-.0337.2557-.0461.3782-.0361.0025.0006.0115.001.024.0016.1032.0047.3408.016.4898.1302.0697.0534.1077.1207.1162.2054.014.0866-.0089.1765-.067.2601a1.3883 1.3883 0 01-.2147.2834c-.0488.0503-.1017.099-.1593.1459-.0413.0337-.0839.0657-.1276.0963l-.006.0041c-.136.0948-.2682.172-.3944.2266-.0627.0272-.1178.0453-.1698.0582-.0293.0072-.0564.0115-.0814.014-.0083.001-.016.0016-.0234.002l-.005.0003c-.039.001-.0707-.009-.0996-.0254a.2004.2004 0 01-.0652-.0572.2078.2078 0 01-.0373-.0787l-.004-.018-.0066-.032c-.0096-.0569-.014-.1273-.0196-.2085-.0177-.2644.0284-.6212.1342-1.0337.0106-.0413.0058-.085-.013-.1214a.2.2 0 00-.0901-.0847.2003.2003 0 00-.12-.0253.2.2 0 00-.1095.0464c-.1306.1166-.2456.265-.3427.441-.0764.1383-.1416.293-.1952.4595-.0523.1623-.0949.3378-.1275.5222-.0316.1784-.051.3496-.0578.509-.0072.1701.0024.3209.0286.449.0142.0689.0333.127.057.1779.023.0492.0519.0882.0868.1185l.009.0078c.0321.026.068.0462.1074.0593.0422.014.0886.0203.1379.0183.0434-.0018.091-.0095.1416-.0234a.875.875 0 00.1367-.0507c.1194-.054.2329-.132.342-.2273l-.0013.0009c.056-.0506.1083-.1076.155-.1724a.2005.2005 0 01.13-.0779.2.2 0 01.1497.0258.2005.2005 0 01.0793.1287.2012.2012 0 01-.024.1503c-.0692.1007-.1488.1885-.2393.264-.1435.1196-.2993.2115-.4621.2735a1.1497 1.1497 0 01-.2352.0663c-.0424.008-.0838.012-.1243.012-.0432 0-.0856-.004-.1267-.0122a.7013.7013 0 01-.2197-.0813.625.625 0 01-.1738-.1498.7009.7009 0 01-.1158-.2116c-.0323-.0872-.0515-.1868-.0583-.2972zm2.8822 5.754c-.2562.3183-.5899.4782-1.0026.4782-.0165 0-.0334-.0002-.0504-.0007-.378-.0096-.7194-.0878-1.0126-.2309.0432-.033.0861-.0686.1283-.1072.3025-.277.5363-.6164.6987-.9851l.0122-.0275c.0153-.0349.0279-.0637.0429-.1006l.001-.0028c.015-.0373.0265-.0773.0352-.1203.0054-.0196.0101-.0409.0138-.0641.0131-.0723.0057-.1477-.013-.2149a.4055.4055 0 00-.1311-.1897c-.0519-.0417-.1089-.0674-.1694-.0793-.1016-.0198-.2105.0005-.3113.0574a2.727 2.727 0 00-.1651.1176l-.014.0127c-.024.0222-.0472.0442-.0702.067-.0478.0473-.0943.099-.1382.1547l-.0008.0009a3.889 3.889 0 00-.178.2451c-.035.0528-.0712.1128-.1052.1736-.0282.0505-.0502.094-.0724.1399l-.0025.0052a6.667 6.667 0 01-.6305-1.1484c-.0702-.159-.1341-.321-.1917-.4864a11.7757 11.7757 0 01-.1687-.5516c-.029-.1072-.0563-.2181-.0815-.3309-.042-.1882-.0754-.3796-.1004-.573.1162-.0016.2317-.0215.344-.0593.0636-.0214.1262-.0503.1853-.0852.0577-.034.1132-.0754.1639-.1227.1114-.1037.2001-.2273.2557-.3696.0494-.1263.0747-.2629.0716-.4018-.0033-.149-.0405-.2924-.1085-.4205a1.006 1.006 0 00-.2773-.3215c-.1247-.1006-.274-.1692-.4282-.1939 1.016-.9893 1.67-1.8726 1.9413-2.6448a5.2752 5.2752 0 00.2264-1.1846c.0243-.265.0295-.5208.0172-.7593 0-.0057-.0002-.0101-.0005-.0138l-.0016-.0428a3.8437 3.8437 0 00-.025-.2483c-.0267-.1805-.0675-.3581-.1258-.5248-.0268-.077-.0574-.1518-.0916-.2232a2.4095 2.4095 0 00-.1126-.1955c.2849-.0508.571-.0706.852-.0577.2614.012.5196.0517.7642.1196.2424.0672.4707.1643.6853.2891.2205.1282.402.2829.5562.4727.2254.2773.4026.5975.5378.9697.1359.3741.2248.7863.268 1.2425.043.4551.037.9482-.0178 1.4768a10.763 10.763 0 01-.3506 1.7756 12.9027 12.9027 0 01-.7203 1.9204 12.3497 12.3497 0 01-.7966 1.473c-.2837.437-.5715.8069-.8547 1.0988a5.1368 5.1368 0 01-.3946.3665c.0219.176.0421.3337.0589.4629.0143.1103.0258.2057.0323.2839l.002.0238c.0047.0536.0074.1016.0086.1438.0019.0645.0004.1182-.005.1626a.8694.8694 0 01-.0241.1018c-.0071.0224-.0172.0385-.029.0492-.0127.0115-.0292.0162-.0494.017-.0113.0004-.024-.001-.0388-.0044zm5.8906-3.2773c-.9852.296-1.9287.4496-2.8011.4576-.6024.0055-1.1366-.0724-1.5916-.2323.0217-.0428.0409-.091.0566-.1454.0389-.1347.0523-.2833.0312-.4399-.0182-.135-.0389-.272-.062-.4095-.0272-.1625-.057-.329-.0873-.4891l-.0065-.0338c.2024-.1718.4032-.3728.6008-.5993.3065-.3512.6148-.7738.9157-1.2558a13.1946 13.1946 0 00.8484-1.5684c.2634-.5846.4945-1.214.6878-1.8718l.0052-.0177c.3137-1.0732.4627-2.1255.4439-3.1331a7.3753 7.3753 0 00-.0655-.7862c.2863-.2127.5895-.3654.9092-.4578l.0147-.004c.0386-.0101.0778-.0191.117-.0268a2.654 2.654 0 01.4985-.047c.0238.0006.0473.001.0704.002.6826.0176 1.233.2478 1.636.684.4087.4425.6747 1.0534.8223 1.8211l.002.0102c.0536.2786.091.5716.1115.874.0207.3072.0247.623.0115.9416a8.2814 8.2814 0 01-.1014 1.1556c-.0578.4156-.1417.8218-.2505 1.2089-.1077.3833-.2392.7438-.3916 1.0717a7.5208 7.5208 0 01-.5096.917c-.1871.283-.3886.533-.5999.7427-.2074.2058-.4223.3696-.6386.4869-.2014.1094-.405.1732-.6041.1883a.8734.8734 0 01-.0567.002c-.3363 0-.5893-.1704-.7536-.507a2.5166 2.5166 0 01-.18-.5158c-.0313-.1618-.0458-.3308-.044-.5001.0019-.17.0178-.3411.0472-.5093a3.364 3.364 0 01.105-.4104c.0464-.1413.0916-.2488.1534-.3694l.011-.0208-.0038-.0013c.0008-.0034.0015-.0068.0023-.0102a.2001.2001 0 00-.0261-.1526.2004.2004 0 00-.1252-.0874.1993.1993 0 00-.1536.0234.2009.2009 0 00-.0896.1231c-.0737.2876-.1321.5759-.1645.8576-.0305.265-.0403.5281-.0284.7811.0118.2504.0483.4898.1085.7101.0624.2286.1538.4303.2717.5993.1262.181.2837.3193.471.4128.1843.092.3945.1387.626.1387.0524 0 .106-.0024.1602-.0072a2.11 2.11 0 00.5698-.1343z"/>
  </symbol>

  <symbol id="icon-dynamodb" viewBox="0 0 24 24">
    <path d="M16.606 20.705v-1.735c1.09-.484 1.942-1.053 2.543-1.699.61-.655.944-1.362 1.012-2.072l.832.21.002-.008c-.08.929-.478 1.842-1.207 2.624-.73.784-1.824 1.503-3.182 2.068v.612zm-.84-1.463c-.507.168-1.044.321-1.609.454v2.294c.573-.136 1.12-.293 1.609-.466v-2.282zm-2.449.591a20.8 20.8 0 01-1.608.209v1.937c.534-.039 1.073-.1 1.608-.178v-1.968zm-2.448.271a21.64 21.64 0 01-1.609-.003v1.616c.529.052 1.066.08 1.609.085v-1.698zm-2.449-.15a15.768 15.768 0 01-1.609-.29v1.196c.499.136 1.037.253 1.609.346v-1.252zm-2.449-.5a11.1 11.1 0 01-1.608-.727v.651c.445.297.978.571 1.608.81v-.735zm-2.449-1.09c-.44-.373-.757-.766-.95-1.172l-.715.18c.22.558.63 1.087 1.237 1.569l.428-.578zM3.95 16.16c-.12-.46-.158-.932-.11-1.405l-.837-.211c-.068.604.003 1.21.172 1.807l.775-.19zm-.055-2.255c.1-.45.288-.897.566-1.332l-.667-.474c-.34.517-.567 1.055-.694 1.598l.795.208zm.925-2.114c.298-.38.665-.75 1.098-1.105l-.494-.62c-.495.403-.908.827-1.242 1.261l.638.464zm1.793-1.641c.436-.297.927-.576 1.47-.833l-.306-.73a12.33 12.33 0 00-1.623.916l.459.647zm2.294-1.265c.536-.225 1.116-.425 1.739-.598l-.15-.766c-.665.183-1.284.399-1.856.641l.267.723zm2.609-.823c.575-.134 1.184-.24 1.826-.316l-.006-.778a18.99 18.99 0 00-1.961.341l.14.753zm2.686-.383c.585-.05 1.197-.072 1.835-.063l.026-.778a20.632 20.632 0 00-1.968.068l.107.773zm2.677.085c.563.058 1.145.147 1.744.27l.184-.755c-.636-.13-1.255-.224-1.856-.287l-.072.772zm2.583.497c.345.109.684.232 1.019.37l.397-.669a11.37 11.37 0 00-1.159-.421l-.257.72zm1.758.728c.283.178.545.368.782.57l.52-.565a7.47 7.47 0 00-.923-.664l-.38.659zm1.283 1.154c.183.258.312.524.396.795l.765-.193c-.114-.37-.29-.73-.52-1.074l-.641.472zm.523 1.545c.011.285-.028.573-.118.86l.785.198c.12-.385.17-.77.157-1.15l-.824.092zm-.243 1.617a3.72 3.72 0 01-.587.879l.606.496c.306-.355.539-.725.704-1.103l-.723-.272zM7.393 3.294v1.735c-1.09.484-1.942 1.053-2.543 1.7-.61.655-.944 1.361-1.012 2.071l-.832-.21-.002.008c.08-.929.478-1.842 1.207-2.625.73-.783 1.824-1.502 3.182-2.067v-.612zm.84 1.463c.507-.168 1.044-.32 1.609-.454V2.01c-.573.136-1.12.293-1.609.466v2.282zm2.449-.59c.527-.102 1.064-.171 1.608-.21V2.02c-.534.04-1.073.1-1.608.178v1.968zm2.448-.272c.543.017 1.08.054 1.609.003V2.282c-.529-.052-1.066-.08-1.609-.085v1.698zm2.449.15c.56.07 1.1.17 1.609.29V3.14c-.499-.136-1.037-.253-1.609-.346v1.252zm2.449.5c.586.198 1.126.443 1.608.727v-.651a7.173 7.173 0 00-1.608-.81v.735zm2.449 1.09c.44.373.757.766.95 1.172l.715-.18c-.22-.558-.63-1.087-1.237-1.569l-.428.577zM20.049 7.84c.12.46.158.932.11 1.405l.837.211c.068-.604-.003-1.21-.172-1.807l-.775.19zm.055 2.255c-.1.45-.288.897-.566 1.332l.667.474c.34-.517.567-1.055.694-1.598l-.795-.208z"/>
  </symbol>

  <symbol id="icon-jest" viewBox="0 0 24 24">
    <path d="M22.251 11.82a3.117 3.117 0 0 0-2.328-3.01L22.911 0H8.104L11.1 8.838a3.116 3.116 0 0 0-2.244 2.988c0 1.043.52 1.967 1.313 2.536a8.279 8.279 0 0 1-1.084 1.244 8.14 8.14 0 0 1-2.55 1.647c-.834-.563-1.195-1.556-.869-2.446a3.11 3.11 0 0 0-.91-6.08 3.117 3.117 0 0 0-3.113 3.113c0 .848.347 1.626.903 2.182-.048.097-.097.195-.146.299-.465.959-.993 2.043-1.195 3.259-.403 2.432.257 4.384 1.849 5.489A5.093 5.093 0 0 0 5.999 24c1.827 0 3.682-.917 5.475-1.807 1.279-.632 2.599-1.292 3.898-1.612.48-.118.98-.187 1.508-.264 1.07-.153 2.175-.312 3.168-.89a4.482 4.482 0 0 0 2.182-3.091c.174-.994 0-1.994-.444-2.87.298-.48.465-1.042.465-1.647zm-1.355 0c0 .965-.785 1.75-1.75 1.75a1.753 1.753 0 0 1-1.085-3.126l.007-.007c.056-.042.118-.084.18-.125 0 0 .008 0 .008-.007.028-.014.055-.035.083-.05.007 0 .014-.006.021-.006.028-.014.063-.028.097-.042.035-.014.07-.027.098-.041.007 0 .013-.007.02-.007.028-.007.056-.021.084-.028.007 0 .02-.007.028-.007.034-.007.062-.014.097-.02h.007l.104-.022c.007 0 .02 0 .028-.007.028 0 .055-.007.083-.007h.035c.035 0 .07-.007.111-.007h.09c.028 0 .05 0 .077.007h.014c.055.007.111.014.167.028a1.766 1.766 0 0 1 1.396 1.723zM10.043 1.39h10.93l-2.509 7.4c-.104.02-.208.055-.312.09l-2.64-5.385-2.648 5.35c-.104-.034-.216-.055-.327-.076l-2.494-7.38zm4.968 9.825a3.083 3.083 0 0 0-.938-1.668l1.438-2.904 1.452 2.967c-.43.43-.743.98-.868 1.605H15.01zm-3.481-1.098c.034-.007.062-.014.097-.02h.02c.029-.008.056-.008.084-.015h.028c.028 0 .049-.007.076-.007h.271c.028 0 .049.007.07.007.014 0 .02 0 .035.007.027.007.048.007.076.014.007 0 .014 0 .028.007l.097.02h.007c.028.008.056.015.083.029.007 0 .014.007.028.007.021.007.049.014.07.027.007 0 .014.007.02.007.028.014.056.021.084.035h.007a.374.374 0 0 1 .09.049h.007c.028.014.056.034.084.048.007 0 .007.007.013.007.028.014.05.035.077.049l.007.007c.083.062.16.132.236.201l.007.007a1.747 1.747 0 0 1 .48 1.209 1.752 1.752 0 0 1-3.502 0 1.742 1.742 0 0 1 1.32-1.695zm-6.838-.049c.966 0 1.751.786 1.751 1.751s-.785 1.751-1.75 1.751-1.752-.785-1.752-1.75.786-1.752 1.751-1.752zm16.163 6.025a3.07 3.07 0 0 1-1.508 2.133c-.758.438-1.689.577-2.669.716a17.29 17.29 0 0 0-1.64.291c-1.445.355-2.834 1.05-4.182 1.717-1.724.854-3.35 1.66-4.857 1.66a3.645 3.645 0 0 1-2.154-.688c-1.529-1.056-1.453-3.036-1.272-4.12.167-1.015.632-1.966 1.077-2.877.028-.055.049-.104.077-.16.152.056.312.098.479.126-.264 1.473.486 2.994 1.946 3.745l.264.139.284-.104c1.216-.431 2.342-1.133 3.336-2.071a9.334 9.334 0 0 0 1.445-1.716c.16.027.32.034.48.034a3.117 3.117 0 0 0 3.008-2.327h1.167a3.109 3.109 0 0 0 3.01 2.327c.576 0 1.11-.16 1.57-.43.18.52.236 1.063.139 1.605z"/>
  </symbol>

</svg>
